<svg width="51" height="50" viewBox="0 0 51 50" fill="none" xmlns="http://www.w3.org/2000/svg">
<path d="M36.854 47.3958C34.4998 47.3958 32.0207 46.8333 29.4582 45.75C26.9582 44.6875 24.4373 43.2292 21.979 41.4583C19.5415 39.6667 17.1873 37.6667 14.9582 35.4792C12.7498 33.25 10.7498 30.8958 8.979 28.4792C7.18734 25.9792 5.74984 23.4792 4.729 21.0625C3.64567 18.4792 3.104 15.9792 3.104 13.625C3.104 12 3.39567 10.4583 3.95817 9.02082C4.5415 7.54166 5.479 6.16666 6.74984 4.97916C8.354 3.39582 10.1873 2.60416 12.1457 2.60416C12.9582 2.60416 13.7915 2.79166 14.4998 3.12499C15.3123 3.49999 15.9998 4.06249 16.4998 4.81249L21.3332 11.625C21.7707 12.2292 22.104 12.8125 22.3332 13.3958C22.604 14.0208 22.7498 14.6458 22.7498 15.25C22.7498 16.0417 22.5207 16.8125 22.0832 17.5417C21.7707 18.1042 21.2915 18.7083 20.6873 19.3125L19.2707 20.7917C19.2915 20.8542 19.3123 20.8958 19.3332 20.9375C19.5832 21.375 20.0832 22.125 21.0415 23.25C22.0623 24.4167 23.0207 25.4792 23.979 26.4583C25.2082 27.6667 26.229 28.625 27.1873 29.4167C28.3748 30.4167 29.1457 30.9167 29.604 31.1458L29.5623 31.25L31.0832 29.75C31.729 29.1042 32.354 28.625 32.9582 28.3125C34.104 27.6042 35.5623 27.4792 37.0207 28.0833C37.5623 28.3125 38.1457 28.625 38.7707 29.0625L45.6873 33.9792C46.4582 34.5 47.0207 35.1667 47.354 35.9583C47.6665 36.75 47.8123 37.4792 47.8123 38.2083C47.8123 39.2083 47.5832 40.2083 47.1457 41.1458C46.7082 42.0833 46.1665 42.8958 45.479 43.6458C44.2915 44.9583 42.9998 45.8958 41.4998 46.5C40.0623 47.0833 38.4998 47.3958 36.854 47.3958ZM12.1457 5.72916C10.9998 5.72916 9.93734 6.22916 8.9165 7.22916C7.95817 8.12499 7.2915 9.10416 6.87484 10.1667C6.43734 11.25 6.229 12.3958 6.229 13.625C6.229 15.5625 6.68734 17.6667 7.604 19.8333C8.5415 22.0417 9.854 24.3333 11.5207 26.625C13.1873 28.9167 15.0832 31.1458 17.1665 33.25C19.2498 35.3125 21.4998 37.2292 23.8123 38.9167C26.0623 40.5625 28.3748 41.8958 30.6665 42.8542C34.229 44.375 37.5623 44.7292 40.3123 43.5833C41.3748 43.1458 42.3123 42.4792 43.1665 41.5208C43.6457 41 44.0207 40.4375 44.3332 39.7708C44.5832 39.25 44.7082 38.7083 44.7082 38.1667C44.7082 37.8333 44.6457 37.5 44.479 37.125C44.4165 37 44.2915 36.7708 43.8957 36.5L36.979 31.5833C36.5623 31.2917 36.1873 31.0833 35.8332 30.9375C35.3748 30.75 35.1873 30.5625 34.479 31C34.0623 31.2083 33.6873 31.5208 33.2707 31.9375L31.6873 33.5C30.8748 34.2917 29.6248 34.4792 28.6665 34.125L28.104 33.875C27.2498 33.4167 26.2498 32.7083 25.1457 31.7708C24.1457 30.9167 23.0623 29.9167 21.7498 28.625C20.729 27.5833 19.7082 26.4792 18.6457 25.25C17.6665 24.1042 16.9582 23.125 16.5207 22.3125L16.2707 21.6875C16.1457 21.2083 16.104 20.9375 16.104 20.6458C16.104 19.8958 16.3748 19.2292 16.8957 18.7083L18.4582 17.0833C18.8748 16.6667 19.1873 16.2708 19.3957 15.9167C19.5623 15.6458 19.6248 15.4167 19.6248 15.2083C19.6248 15.0417 19.5623 14.7917 19.4582 14.5417C19.3123 14.2083 19.0832 13.8333 18.7915 13.4375L13.9582 6.60416C13.7498 6.31249 13.4998 6.10416 13.1873 5.95832C12.854 5.81249 12.4998 5.72916 12.1457 5.72916ZM29.5623 31.2708L29.229 32.6875L29.7915 31.2292C29.6873 31.2083 29.604 31.2292 29.5623 31.2708Z" fill="#273653"/>
<path d="M39.0417 20.3125C38.1875 20.3125 37.4792 19.6042 37.4792 18.75C37.4792 18 36.7292 16.4375 35.4792 15.1042C34.25 13.7917 32.8958 13.0208 31.75 13.0208C30.8958 13.0208 30.1875 12.3125 30.1875 11.4583C30.1875 10.6042 30.8958 9.89584 31.75 9.89584C33.7708 9.89584 35.8958 10.9792 37.75 12.9583C39.4792 14.8125 40.6042 17.0833 40.6042 18.75C40.6042 19.6042 39.8958 20.3125 39.0417 20.3125Z" fill="#33A2EB"/>
<path d="M46.3333 20.3125C45.4792 20.3125 44.7708 19.6042 44.7708 18.75C44.7708 11.5625 38.9375 5.72916 31.75 5.72916C30.8958 5.72916 30.1875 5.02082 30.1875 4.16666C30.1875 3.31249 30.8958 2.60416 31.75 2.60416C40.6458 2.60416 47.8958 9.85416 47.8958 18.75C47.8958 19.6042 47.1875 20.3125 46.3333 20.3125Z" fill="#9ED8FE"/>
</svg>
