<svg width="23" height="19" viewBox="0 0 23 19" fill="none" xmlns="http://www.w3.org/2000/svg">
<path d="M1.98947 8.55945C7.80556 5.97221 11.6839 4.26654 13.6244 3.44245C19.165 1.0895 20.3162 0.680764 21.0666 0.667123C21.2317 0.664299 21.6007 0.70606 21.8397 0.904098C22.0416 1.07132 22.0971 1.29721 22.1237 1.45575C22.1503 1.61429 22.1834 1.97545 22.157 2.25766C21.8568 5.47867 20.5576 13.2952 19.8967 16.9028C19.617 18.4293 19.0664 18.9412 18.5332 18.9912C17.3747 19.1001 16.4949 18.2095 15.3727 17.4584C13.6168 16.2832 12.6248 15.5516 10.9204 14.4048C8.95058 13.0795 10.2275 12.351 11.3501 11.1606C11.6439 10.849 16.7486 6.10827 16.8474 5.67821C16.8598 5.62443 16.8712 5.42394 16.7546 5.31807C16.6379 5.2122 16.4658 5.24841 16.3415 5.2772C16.1654 5.31801 13.3603 7.21107 7.92611 10.9564C7.12988 11.5146 6.40868 11.7866 5.76251 11.7724C5.05016 11.7566 3.67988 11.3611 2.66123 11.023C1.4118 10.6084 0.418779 10.3891 0.505249 9.68487C0.550288 9.31806 1.04503 8.94291 1.98947 8.55945Z" fill="white"/>
</svg>
