<svg width="24" height="24" viewBox="0 0 24 24" fill="none" xmlns="http://www.w3.org/2000/svg">
<path d="M19.959 4.0099C17.8149 1.80269 14.8509 0.604492 11.8239 0.604492C5.39146 0.604492 0.22029 5.83873 0.283353 12.2081C0.283353 14.2261 0.85092 16.1811 1.79687 17.9468L0.157227 23.9378L6.27434 22.3612C7.97705 23.3072 9.86894 23.7486 11.7608 23.7486C18.1302 23.7486 23.3014 18.5144 23.3014 12.145C23.3014 9.05494 22.1032 6.15404 19.959 4.0099ZM11.8239 21.7937C10.1212 21.7937 8.41849 21.3522 6.96804 20.4694L6.58966 20.2802L2.932 21.2261L3.87795 17.6315L3.6257 17.2531C0.85092 12.7757 2.17524 6.84773 6.71579 4.07296C11.2563 1.29819 17.1212 2.62251 19.896 7.16305C22.6707 11.7036 21.3464 17.5685 16.8059 20.3432C15.3554 21.2892 13.5897 21.7937 11.8239 21.7937ZM17.3734 14.7937L16.6798 14.4784C16.6798 14.4784 15.6707 14.0369 15.0401 13.7216C14.977 13.7216 14.914 13.6585 14.8509 13.6585C14.6617 13.6585 14.5356 13.7216 14.4095 13.7847C14.4095 13.7847 14.3464 13.8477 13.4635 14.8567C13.4005 14.9829 13.2743 15.0459 13.1482 15.0459H13.0852C13.0221 15.0459 12.896 14.9829 12.8329 14.9198L12.5176 14.7937C11.8239 14.4784 11.1933 14.1 10.6888 13.5955C10.5626 13.4694 10.3734 13.3432 10.2473 13.2171C9.80588 12.7757 9.36443 12.2712 9.04912 11.7036L8.98606 11.5775C8.92299 11.5144 8.92299 11.4513 8.85993 11.3252C8.85993 11.1991 8.85993 11.073 8.92299 11.0099C8.92299 11.0099 9.17525 10.6946 9.36443 10.5054C9.49056 10.3793 9.55362 10.1901 9.67975 10.064C9.80588 9.87476 9.86894 9.62251 9.80588 9.43332C9.74281 9.118 8.98606 7.4153 8.79687 7.03692C8.67074 6.84773 8.54461 6.78467 8.35542 6.72161H8.16624C8.04011 6.72161 7.85092 6.72161 7.66173 6.72161C7.5356 6.72161 7.40948 6.78467 7.28335 6.78467L7.22029 6.84773C7.09416 6.9108 6.96804 7.03692 6.84191 7.09999C6.71579 7.22611 6.65272 7.35224 6.5266 7.47836C6.08516 8.04593 5.8329 8.73963 5.8329 9.43332C5.8329 9.93782 5.95903 10.4423 6.14822 10.8838L6.21128 11.073C6.77885 12.2712 7.53561 13.3432 8.54461 14.2892L8.79687 14.5414C8.98606 14.7306 9.17525 14.8567 9.30137 15.0459C10.6257 16.1811 12.1392 17.0009 13.8419 17.4423C14.0311 17.5054 14.2834 17.5054 14.4725 17.5685C14.6617 17.5685 14.914 17.5685 15.1032 17.5685C15.4185 17.5685 15.7969 17.4423 16.0491 17.3162C16.2383 17.1901 16.3644 17.1901 16.4906 17.0639L16.6167 16.9378C16.7428 16.8117 16.8689 16.7486 16.9951 16.6225C17.1212 16.4964 17.2473 16.3703 17.3104 16.2441C17.4365 15.9919 17.4996 15.6766 17.5626 15.3612C17.5626 15.2351 17.5626 15.0459 17.5626 14.9198C17.5626 14.9198 17.4996 14.8567 17.3734 14.7937Z" fill="white"/>
</svg>
