<svg width="20" height="20" viewBox="0 0 20 20" xmlns="http://www.w3.org/2000/svg">
<path d="M10.0001 18.9584C5.05841 18.9584 1.04175 14.9417 1.04175 10C1.04175 5.05835 5.05841 1.04169 10.0001 1.04169C14.9417 1.04169 18.9584 5.05835 18.9584 10C18.9584 14.9417 14.9417 18.9584 10.0001 18.9584ZM10.0001 2.29169C5.75008 2.29169 2.29175 5.75002 2.29175 10C2.29175 14.25 5.75008 17.7084 10.0001 17.7084C14.2501 17.7084 17.7084 14.25 17.7084 10C17.7084 5.75002 14.2501 2.29169 10.0001 2.29169Z"/>
<path d="M9.99989 12.5083C9.84155 12.5083 9.68322 12.45 9.55822 12.325L6.61655 9.38331C6.37489 9.14164 6.37489 8.74164 6.61655 8.49998C6.85822 8.25831 7.25822 8.25831 7.49989 8.49998L9.99989 11L12.4999 8.49998C12.7416 8.25831 13.1416 8.25831 13.3832 8.49998C13.6249 8.74164 13.6249 9.14164 13.3832 9.38331L10.4416 12.325C10.3166 12.45 10.1582 12.5083 9.99989 12.5083Z"/>
</svg>
