<svg id="ok" width="31" height="31" viewBox="0 0 31 31" fill="none" xmlns="http://www.w3.org/2000/svg">
<path fill-rule="evenodd" clip-rule="evenodd" d="M0 15.5C0 6.93959 6.93959 0 15.5 0C24.0604 0 31 6.93959 31 15.5C31 24.0604 24.0604 31 15.5 31C6.93959 31 0 24.0604 0 15.5ZM15.4895 15.7488C17.7751 15.7488 19.6331 13.9551 19.6331 11.75C19.6331 9.54419 17.7751 7.75 15.4895 7.75C13.2043 7.75 11.3459 9.54419 11.3459 11.75C11.3459 13.9551 13.2043 15.7488 15.4895 15.7488ZM19.5828 18.0517C18.8336 18.506 18.0201 18.8281 17.1767 19.0136L19.493 21.2498C19.9676 21.7069 19.9676 22.4493 19.493 22.9068C19.019 23.3644 18.2507 23.3644 17.7771 22.9068L15.4997 20.7094L13.2242 22.9068C12.9869 23.1354 12.676 23.2498 12.3651 23.2498C12.0547 23.2498 11.7443 23.1354 11.507 22.9068C11.033 22.4493 11.033 21.7074 11.5065 21.2498L13.8232 19.0136C12.9797 18.8281 12.1663 18.5055 11.417 18.0517C10.85 17.7066 10.6797 16.9836 11.037 16.4358C11.3932 15.8873 12.1425 15.7222 12.7105 16.0673C14.4068 17.0973 16.592 17.0975 18.2894 16.0673C18.8574 15.7222 19.6063 15.8873 19.9634 16.4358C20.3206 16.9832 20.1498 17.7066 19.5828 18.0517Z" fill="#C5C9D6"/>
<path d="M15.4896 10.0942C16.4357 10.0942 17.2052 10.8369 17.2052 11.7501C17.2052 12.6626 16.4357 13.4057 15.4896 13.4057C14.5442 13.4057 13.7739 12.6626 13.7739 11.7501C13.7739 10.8369 14.5442 10.0942 15.4896 10.0942Z" fill="#C5C9D6"/>
</svg>
