<svg id="twitter" width="31" height="31" viewBox="0 0 31 31" fill="none" xmlns="http://www.w3.org/2000/svg">
<path fill-rule="evenodd" clip-rule="evenodd" d="M15.5 0C6.93959 0 0 6.93959 0 15.5C0 24.0604 6.93959 31 15.5 31C24.0604 31 31 24.0604 31 15.5C31 6.93959 24.0604 0 15.5 0ZM15.0683 13.1349L15.0358 12.5986C14.9382 11.2085 15.7947 9.93881 17.15 9.44626C17.6487 9.27113 18.4944 9.24924 19.0473 9.40248C19.2641 9.46815 19.6761 9.68706 19.9689 9.88408L20.5001 10.2453L21.0856 10.0592C21.4108 9.9607 21.8445 9.79652 22.0397 9.68706C22.224 9.58855 22.3866 9.53382 22.3866 9.56666C22.3866 9.75274 21.9855 10.3876 21.6494 10.7378C21.194 11.2304 21.3241 11.2742 22.2457 10.9458C22.7986 10.7597 22.8094 10.7597 22.701 10.9677C22.636 11.0772 22.2999 11.4603 21.9421 11.8105C21.3349 12.4125 21.3024 12.4782 21.3024 12.9817C21.3024 13.7588 20.9338 15.3788 20.5652 16.2654C19.8821 17.9291 18.4185 19.6476 16.9548 20.5123C14.8948 21.7272 12.1518 22.0337 9.84249 21.3223C9.07272 21.0814 7.75 20.4685 7.75 20.359C7.75 20.3262 8.15115 20.2824 8.63904 20.2715C9.65818 20.2496 10.6773 19.965 11.5447 19.4615L12.1301 19.1112L11.4579 18.8814C10.5038 18.553 9.64734 17.7978 9.4305 17.0863C9.36545 16.8564 9.38713 16.8455 9.99428 16.8455L10.6231 16.8345L10.0919 16.5828C9.46302 16.2654 8.8884 15.729 8.60651 15.1818C8.40052 14.7877 8.14031 13.7917 8.2162 13.715C8.23789 13.6822 8.46557 13.7479 8.72577 13.8355C9.47387 14.1091 9.57144 14.0434 9.13777 13.5837C8.32462 12.7518 8.07526 11.515 8.46557 10.3438L8.64988 9.81841L9.36545 10.5299C10.8291 11.9638 12.553 12.8175 14.5262 13.0693L15.0683 13.1349Z" fill="#C5C9D6"/>
</svg>
