<svg id="vk" width="31" height="31" viewBox="0 0 31 31" fill="none" xmlns="http://www.w3.org/2000/svg">
<path fill-rule="evenodd" clip-rule="evenodd" d="M15.5 0C6.93959 0 0 6.93959 0 15.5C0 24.0604 6.93959 31 15.5 31C24.0604 31 31 24.0604 31 15.5C31 6.93959 24.0604 0 15.5 0ZM16.762 20.393C16.6092 20.5541 16.3108 20.5867 16.3108 20.5867H15.3227C15.3227 20.5867 13.1425 20.7152 11.222 18.7531C9.12762 16.6123 7.27824 12.3648 7.27824 12.3648C7.27824 12.3648 7.1715 12.0862 7.28714 11.9521C7.41733 11.8005 7.77233 11.791 7.77233 11.791L10.1344 11.7759C10.1344 11.7759 10.3568 11.8116 10.5161 11.9267C10.6479 12.0219 10.7215 12.1989 10.7215 12.1989C10.7215 12.1989 11.1031 13.1467 11.6085 14.004C12.5959 15.678 13.0552 16.0439 13.39 15.8645C13.8784 15.6034 13.732 13.4983 13.732 13.4983C13.732 13.4983 13.7409 12.7347 13.4862 12.3942C13.2889 12.1307 12.9169 12.0537 12.7528 12.0323C12.6193 12.0148 12.8377 11.7116 13.1207 11.5758C13.5461 11.3718 14.2965 11.3599 15.1836 11.3687C15.875 11.3758 16.0739 11.4179 16.344 11.4822C16.9708 11.6307 16.9512 12.1065 16.909 13.1335C16.8964 13.4406 16.8817 13.797 16.8817 14.2088C16.8817 14.3013 16.879 14.3999 16.8761 14.5014C16.8615 15.0275 16.8447 15.63 17.1979 15.8542C17.379 15.9685 17.8214 15.8709 18.9284 14.0262C19.4532 13.1515 19.8462 12.1235 19.8462 12.1235C19.8462 12.1235 19.9327 11.9402 20.0662 11.8616C20.2028 11.7814 20.3872 11.806 20.3872 11.806L22.873 11.791C22.873 11.791 23.6202 11.7028 23.7407 12.0346C23.8676 12.3815 23.4617 13.1927 22.446 14.5215C21.4826 15.7823 21.0137 16.2465 21.0568 16.657C21.0882 16.957 21.393 17.2283 21.9778 17.7609C23.1987 18.8735 23.5259 19.4589 23.6046 19.5995C23.6111 19.6112 23.6159 19.6198 23.6194 19.6254C24.1668 20.5168 23.0121 20.5867 23.0121 20.5867L20.8037 20.6168C20.8037 20.6168 20.3298 20.7089 19.7055 20.2882C19.3785 20.068 19.0589 19.7084 18.7546 19.3659C18.2898 18.8427 17.8604 18.3595 17.4939 18.4737C16.8785 18.6657 16.8971 19.9667 16.8971 19.9667C16.8971 19.9667 16.9019 20.2453 16.762 20.393Z" fill="#C5C9D6"/>
</svg>
