<svg id="youtube" width="31" height="31" viewBox="0 0 31 31" fill="none" xmlns="http://www.w3.org/2000/svg">
<path fill-rule="evenodd" clip-rule="evenodd" d="M15.5 0C6.93959 0 0 6.93959 0 15.5C0 24.0604 6.93959 31 15.5 31C24.0604 31 31 24.0604 31 15.5C31 6.93959 24.0604 0 15.5 0ZM21.9594 10.1714C22.6708 10.3666 23.231 10.9418 23.4212 11.6723C23.7667 12.9961 23.7667 15.7583 23.7667 15.7583C23.7667 15.7583 23.7667 18.5204 23.4212 19.8444C23.231 20.5748 22.6708 21.15 21.9594 21.3453C20.6701 21.7 15.5 21.7 15.5 21.7C15.5 21.7 10.3299 21.7 9.04054 21.3453C8.32913 21.15 7.76888 20.5748 7.57875 19.8444C7.23333 18.5204 7.23333 15.7583 7.23333 15.7583C7.23333 15.7583 7.23333 12.9961 7.57875 11.6723C7.76888 10.9418 8.32913 10.3666 9.04054 10.1714C10.3299 9.81666 15.5 9.81666 15.5 9.81666C15.5 9.81666 20.6701 9.81666 21.9594 10.1714Z" fill="#C5C9D6"/>
<path d="M13.95 18.6V13.4333L18.0833 16.0168L13.95 18.6Z" fill="#C5C9D6"/>
</svg>
