<svg width="51" height="50" fill="none" xmlns="http://www.w3.org/2000/svg"><path d="M36.854 47.396c-2.354 0-4.833-.563-7.396-1.646-2.5-1.063-5.02-2.52-7.479-4.292a65.015 65.015 0 0 1-7.02-5.979 62.24 62.24 0 0 1-5.98-7c-1.792-2.5-3.23-5-4.25-7.416-1.083-2.584-1.625-5.084-1.625-7.438 0-1.625.292-3.167.854-4.604.583-1.48 1.521-2.854 2.792-4.042 1.604-1.583 3.437-2.375 5.396-2.375.812 0 1.645.188 2.354.521a4.77 4.77 0 0 1 2 1.687l4.833 6.813c.438.604.771 1.188 1 1.77.271.626.417 1.25.417 1.855 0 .792-.23 1.563-.667 2.292-.312.562-.791 1.166-1.396 1.77l-1.416 1.48c.02.062.041.104.062.145.25.438.75 1.188 1.709 2.313a78.206 78.206 0 0 0 2.937 3.208c1.23 1.209 2.25 2.167 3.208 2.959 1.188 1 1.959 1.5 2.417 1.729l-.042.104 1.521-1.5c.646-.646 1.271-1.125 1.875-1.438 1.146-.708 2.604-.833 4.063-.229a9.49 9.49 0 0 1 1.75.98l6.916 4.916c.771.521 1.334 1.188 1.667 1.98.313.791.458 1.52.458 2.25 0 1-.229 2-.666 2.937a9.703 9.703 0 0 1-1.667 2.5c-1.188 1.312-2.48 2.25-3.98 2.854-1.437.583-3 .896-4.645.896ZM12.146 5.729c-1.146 0-2.209.5-3.23 1.5-.958.896-1.625 1.875-2.041 2.938-.438 1.083-.646 2.229-.646 3.458 0 1.938.458 4.042 1.375 6.208.937 2.209 2.25 4.5 3.917 6.792a57.634 57.634 0 0 0 5.645 6.625 58.656 58.656 0 0 0 6.646 5.667c2.25 1.645 4.563 2.979 6.854 3.937 3.563 1.521 6.896 1.875 9.646.73 1.063-.438 2-1.105 2.855-2.063a6.76 6.76 0 0 0 1.166-1.75 3.69 3.69 0 0 0 .375-1.604 2.48 2.48 0 0 0-.229-1.042c-.063-.125-.188-.354-.583-.625l-6.917-4.917a5.977 5.977 0 0 0-1.146-.645c-.458-.188-.646-.375-1.354.062-.417.208-.792.52-1.208.938L31.687 33.5c-.812.792-2.062.98-3.02.625l-.563-.25c-.854-.458-1.854-1.167-2.958-2.104-1-.854-2.084-1.854-3.396-3.146a72.793 72.793 0 0 1-3.104-3.375c-.98-1.146-1.688-2.125-2.125-2.938l-.25-.625c-.125-.479-.167-.75-.167-1.041 0-.75.27-1.417.792-1.938l1.562-1.625c.417-.416.73-.812.938-1.166.166-.271.229-.5.229-.709 0-.166-.063-.416-.167-.666a5.976 5.976 0 0 0-.666-1.104l-4.834-6.834a1.92 1.92 0 0 0-.77-.646 2.609 2.609 0 0 0-1.042-.229Zm17.416 25.542-.333 1.416.563-1.458c-.105-.02-.188 0-.23.042Z" fill="#273653"/><path d="M39.042 20.313a1.574 1.574 0 0 1-1.563-1.563c0-.75-.75-2.313-2-3.646-1.229-1.312-2.583-2.083-3.729-2.083a1.574 1.574 0 0 1-1.563-1.563c0-.854.709-1.562 1.563-1.562 2.02 0 4.146 1.083 6 3.062 1.73 1.854 2.854 4.125 2.854 5.792 0 .854-.708 1.563-1.562 1.563Z" fill="#33A2EB"/><path d="M46.333 20.313a1.574 1.574 0 0 1-1.562-1.563c0-7.188-5.834-13.02-13.021-13.02a1.574 1.574 0 0 1-1.563-1.563c0-.855.709-1.563 1.563-1.563 8.896 0 16.146 7.25 16.146 16.146 0 .854-.709 1.563-1.563 1.563Z" fill="#9ED8FE"/></svg>