<svg width="23" height="19" fill="none" xmlns="http://www.w3.org/2000/svg"><path d="M1.99 8.56c5.816-2.588 9.694-4.293 11.634-5.118C19.165 1.09 20.316.681 21.067.667c.165-.003.534.04.773.237.202.167.257.393.284.552.026.158.06.52.033.802-.3 3.22-1.6 11.037-2.26 14.645-.28 1.526-.83 2.038-1.364 2.088-1.158.11-2.038-.782-3.16-1.533-1.756-1.175-2.748-1.906-4.453-3.053-1.97-1.325-.693-2.054.43-3.244.294-.312 5.399-5.053 5.497-5.483.013-.054.024-.254-.092-.36-.117-.106-.29-.07-.413-.04-.177.04-2.982 1.933-8.416 5.678-.796.559-1.517.83-2.163.816-.713-.015-2.083-.41-3.102-.749-1.25-.415-2.242-.634-2.156-1.338.045-.367.54-.742 1.484-1.126Z" fill="#fff"/></svg>