<svg width="24" height="24" fill="none" xmlns="http://www.w3.org/2000/svg"><path d="M19.959 4.01C17.815 1.803 14.851.604 11.824.604 5.39.604.22 5.84.284 12.208c0 2.018.567 3.973 1.513 5.739l-1.64 5.99 6.117-1.576c1.703.946 3.595 1.388 5.487 1.388 6.37 0 11.54-5.235 11.54-11.604 0-3.09-1.198-5.991-3.342-8.135Zm-8.135 17.784c-1.703 0-3.406-.442-4.856-1.325l-.378-.189-3.658.946.946-3.595-.252-.378C.85 12.776 2.176 6.848 6.716 4.073c4.54-2.775 10.405-1.45 13.18 3.09 2.775 4.54 1.45 10.405-3.09 13.18-1.45.946-3.216 1.45-4.982 1.45Zm5.55-7-.694-.316s-1.01-.441-1.64-.756c-.063 0-.126-.063-.19-.063-.188 0-.314.063-.44.126 0 0-.064.063-.947 1.072a.347.347 0 0 1-.315.189h-.063a.478.478 0 0 1-.252-.126l-.315-.126c-.694-.316-1.325-.694-1.83-1.199-.125-.126-.315-.252-.44-.378-.442-.441-.884-.946-1.199-1.513l-.063-.127c-.063-.063-.063-.126-.126-.252 0-.126 0-.252.063-.315 0 0 .252-.315.441-.505.127-.126.19-.315.316-.441.126-.19.189-.441.126-.63-.063-.316-.82-2.019-1.01-2.397-.125-.19-.251-.252-.44-.315h-.694c-.126 0-.253.063-.379.063l-.063.063c-.126.063-.252.189-.378.252-.126.126-.19.252-.315.378a3.216 3.216 0 0 0-.694 1.955c0 .505.126 1.01.315 1.45l.063.19a10.507 10.507 0 0 0 2.334 3.216l.252.252c.19.19.378.316.504.505 1.325 1.135 2.838 1.955 4.54 2.396.19.063.442.063.632.127h.63c.316 0 .694-.127.946-.253.19-.126.315-.126.442-.252l.126-.126c.126-.126.252-.19.378-.316s.252-.252.315-.378c.127-.252.19-.567.253-.883v-.441s-.063-.063-.19-.126Z" fill="#fff"/></svg>