<svg width="50" height="50" fill="none" xmlns="http://www.w3.org/2000/svg"><path d="M25 47.417c-2.271 0-4.521-.667-6.292-1.98L9.75 38.75c-2.375-1.77-4.23-5.48-4.23-8.417v-15.5c0-3.208 2.355-6.625 5.376-7.75L21.29 3.187c2.063-.77 5.313-.77 7.375 0l10.396 3.896c3.021 1.125 5.375 4.542 5.375 7.75v15.48c0 2.958-1.854 6.645-4.229 8.416l-8.958 6.688c-1.73 1.333-3.98 2-6.25 2ZM22.396 6.125 12 10.021c-1.771.666-3.334 2.916-3.334 4.833v15.48c0 1.979 1.396 4.75 2.959 5.916l8.958 6.688c2.396 1.791 6.438 1.791 8.854 0l8.959-6.688c1.583-1.188 2.958-3.938 2.958-5.917v-15.5c0-1.896-1.563-4.146-3.333-4.833L27.625 6.104c-1.417-.5-3.834-.5-5.23.021Z" fill="#9ED8FE"/><path d="M25 33.854c-5.458 0-9.896-4.437-9.896-9.896 0-5.458 4.438-9.895 9.896-9.895 5.458 0 9.896 4.437 9.896 9.895 0 5.459-4.438 9.896-9.896 9.896Zm0-16.666c-3.73 0-6.77 3.041-6.77 6.77 0 3.73 3.04 6.771 6.77 6.771 3.73 0 6.77-3.041 6.77-6.77 0-3.73-3.04-6.771-6.77-6.771Z" fill="#273653"/><path d="M22.916 27.604a1.57 1.57 0 0 1-1.333-.75c-.437-.75-.208-1.708.542-2.146l1.583-.958a.514.514 0 0 0 .25-.438v-1.937c0-.854.708-1.563 1.563-1.563.854 0 1.562.688 1.562 1.542v1.938c0 1.27-.687 2.479-1.77 3.125l-1.605.958c-.229.167-.52.23-.792.23Z" fill="#46B6FF"/></svg>