<svg width="50" height="50" fill="none" xmlns="http://www.w3.org/2000/svg"><path d="M25 28.646a1.574 1.574 0 0 1-1.563-1.563V16.667c0-.855.709-1.563 1.563-1.563s1.563.709 1.563 1.563v10.416c0 .855-.709 1.563-1.563 1.563Z" fill="#273653"/><path d="M25 47.396c-10.917 0-19.792-8.875-19.792-19.792C5.208 16.688 14.083 7.813 25 7.813c10.917 0 19.792 8.875 19.792 19.791 0 .854-.709 1.563-1.563 1.563a1.574 1.574 0 0 1-1.562-1.563c0-9.187-7.48-16.666-16.667-16.666-9.188 0-16.667 7.479-16.667 16.666 0 9.188 7.48 16.667 16.667 16.667.854 0 1.562.708 1.562 1.562 0 .855-.708 1.563-1.562 1.563ZM31.25 5.73h-12.5a1.574 1.574 0 0 1-1.563-1.563c0-.854.709-1.563 1.563-1.563h12.5c.854 0 1.563.709 1.563 1.563s-.709 1.562-1.563 1.562Z" fill="#46B6FF"/><path d="M33.646 45.875c-.73 0-1.396-.167-2-.52-1.375-.792-2.167-2.397-2.167-4.397v-4.812c0-2 .792-3.604 2.167-4.396 1.375-.792 3.146-.667 4.875.313l4.167 2.416c1.729 1 2.729 2.48 2.729 4.063 0 1.583-1 3.062-2.73 4.062l-4.166 2.417c-.958.562-1.938.854-2.875.854Zm.02-11.542a1.06 1.06 0 0 0-.458.105c-.375.208-.604.854-.604 1.687v4.813c0 .833.23 1.479.604 1.687.375.208 1.042.104 1.75-.313l4.167-2.416c.73-.417 1.167-.938 1.167-1.354 0-.417-.438-.938-1.167-1.355l-4.167-2.416c-.479-.292-.937-.438-1.291-.438Z" fill="#273653"/></svg>