<svg width="50" height="50" fill="none" xmlns="http://www.w3.org/2000/svg"><path d="M31.25 47.396h-12.5c-11.312 0-16.146-4.834-16.146-16.146v-12.5c0-11.312 4.834-16.146 16.146-16.146h10.417c.854 0 1.562.709 1.562 1.563s-.708 1.562-1.562 1.562H18.75C9.146 5.73 5.73 9.146 5.73 18.75v12.5c0 9.604 3.416 13.02 13.02 13.02h12.5c9.604 0 13.02-3.416 13.02-13.02V20.833c0-.854.71-1.562 1.563-1.562.855 0 1.563.708 1.563 1.562V31.25c0 11.313-4.833 16.146-16.146 16.146Z" fill="#9ED8FE"/><path d="M45.833 22.396H37.5c-7.125 0-9.896-2.771-9.896-9.896V4.167c0-.625.375-1.209.959-1.438.583-.25 1.25-.104 1.708.333L46.938 19.73a1.565 1.565 0 0 1-1.104 2.667ZM30.73 7.937V12.5c0 5.375 1.396 6.77 6.771 6.77h4.563L30.729 7.939Z" fill="#46B6FF"/><path d="M27.083 28.646h-12.5a1.574 1.574 0 0 1-1.562-1.563c0-.854.708-1.562 1.562-1.562h12.5c.854 0 1.563.708 1.563 1.562 0 .855-.709 1.563-1.563 1.563Zm-4.166 8.334h-8.334a1.574 1.574 0 0 1-1.562-1.563c0-.855.708-1.563 1.562-1.563h8.334c.854 0 1.562.709 1.562 1.563s-.708 1.562-1.562 1.562Z" fill="#273653"/></svg>