<svg width="50" height="50" fill="none" xmlns="http://www.w3.org/2000/svg"><path d="M22.52 35.313c-.395 0-.79-.146-1.103-.459l-3.125-3.125a1.572 1.572 0 0 1 0-2.208 1.572 1.572 0 0 1 2.208 0l2.02 2.02 7.23-7.229a1.572 1.572 0 0 1 2.208 0 1.572 1.572 0 0 1 0 2.209l-8.333 8.333a1.511 1.511 0 0 1-1.104.459Z" fill="#273653"/><path d="M29.167 14.063h-8.334c-2 0-5.729 0-5.729-5.73 0-5.729 3.73-5.729 5.73-5.729h8.333c2 0 5.729 0 5.729 5.73 0 2 0 5.729-5.73 5.729Zm-8.334-8.334c-2.062 0-2.604 0-2.604 2.604s.542 2.604 2.604 2.604h8.334c2.604 0 2.604-.541 2.604-2.604 0-2.604-.542-2.604-2.604-2.604h-8.334Z" fill="#33A2EB"/><path d="M31.25 47.396h-12.5c-11.708 0-14.063-5.375-14.063-14.063v-12.5c0-9.5 3.438-13.562 11.896-14a1.562 1.562 0 0 1 1.646 1.48 1.545 1.545 0 0 1-1.479 1.625c-5.917.333-8.938 2.104-8.938 10.895v12.5c0 7.709 1.521 10.938 10.938 10.938h12.5c9.417 0 10.938-3.23 10.938-10.938v-12.5c0-8.791-3.021-10.562-8.938-10.895-.854-.042-1.52-.792-1.48-1.646a1.567 1.567 0 0 1 1.647-1.48c8.458.459 11.895 4.521 11.895 14v12.5c0 8.709-2.354 14.084-14.062 14.084Z" fill="#9ED8FE"/></svg>