<?xml version="1.0" encoding="utf-8"?><svg width="92" height="84" viewBox="0 0 92 84" xmlns="http://www.w3.org/2000/svg" xmlns:xlink="http://www.w3.org/1999/xlink"><view id="svg-arrow-circle-down" viewBox="66 26 22 22"/><svg width="22" height="22" viewBox="-1 -1 22 22" x="66" y="26" xmlns="http://www.w3.org/2000/svg"><path d="M10 18.958c-4.942 0-8.958-4.016-8.958-8.958S5.058 1.042 10 1.042 18.958 5.058 18.958 10 14.942 18.958 10 18.958zm0-16.666C5.75 2.292 2.292 5.75 2.292 10S5.75 17.708 10 17.708 17.708 14.25 17.708 10 14.25 2.292 10 2.292z"/><path d="M10 12.508a.618.618 0 01-.442-.183L6.617 9.383a.629.629 0 010-.883.629.629 0 01.883 0L10 11l2.5-2.5a.629.629 0 01.883 0 .629.629 0 010 .883l-2.941 2.942a.618.618 0 01-.442.183z"/></svg><view id="svg-arrow-down" viewBox="66 48 18 18"/><svg width="18" height="18" viewBox="-1 -1 18 18" x="66" y="48" xmlns="http://www.w3.org/2000/svg"><path d="M8 11.2c-.467 0-.933-.18-1.287-.533L2.367 6.32a.503.503 0 010-.707.503.503 0 01.706 0L7.42 9.96c.32.32.84.32 1.16 0l4.347-4.347a.503.503 0 01.706 0 .503.503 0 010 .707l-4.346 4.347c-.354.353-.82.533-1.287.533z"/></svg><view id="svg-arrow-left" viewBox="0 66 18 18"/><svg width="18" height="18" viewBox="-1 -1 18 18" y="66" xmlns="http://www.w3.org/2000/svg"><path d="M10 13.78a.494.494 0 01-.353-.147L5.3 9.287a1.827 1.827 0 010-2.574l4.347-4.346a.503.503 0 01.706 0 .503.503 0 010 .706L6.007 7.42a.82.82 0 000 1.16l4.346 4.347a.503.503 0 010 .706.524.524 0 01-.353.147z"/></svg><view id="svg-arrow-right" viewBox="18 66 18 18"/><svg width="18" height="18" viewBox="-1 -1 18 18" x="18" y="66" xmlns="http://www.w3.org/2000/svg"><path d="M5.94 13.78a.495.495 0 01-.353-.147.503.503 0 010-.706L9.933 8.58a.82.82 0 000-1.16L5.587 3.073a.503.503 0 010-.706.503.503 0 01.706 0l4.347 4.346c.34.34.533.8.533 1.287 0 .487-.186.947-.533 1.287l-4.347 4.346a.524.524 0 01-.353.147z"/></svg><view id="svg-menu" viewBox="66 0 26 26"/><svg width="26" height="26" fill="none" viewBox="-1 -1 26 26" x="66" xmlns="http://www.w3.org/2000/svg"><path d="M21 7.75H3c-.41 0-.75-.34-.75-.75s.34-.75.75-.75h18c.41 0 .75.34.75.75s-.34.75-.75.75zM21 12.75H3c-.41 0-.75-.34-.75-.75s.34-.75.75-.75h18c.41 0 .75.34.75.75s-.34.75-.75.75zM21 17.75H3c-.41 0-.75-.34-.75-.75s.34-.75.75-.75h18c.41 0 .75.34.75.75s-.34.75-.75.75z" fill="#273653"/></svg><view id="svg-ok" viewBox="0 0 33 33"/><svg width="33" height="33" fill="none" viewBox="-1 -1 33 33" xmlns="http://www.w3.org/2000/svg"><path fill-rule="evenodd" clip-rule="evenodd" d="M0 15.5C0 6.94 6.94 0 15.5 0 24.06 0 31 6.94 31 15.5 31 24.06 24.06 31 15.5 31 6.94 31 0 24.06 0 15.5zm15.49.249c2.285 0 4.143-1.794 4.143-3.999 0-2.206-1.858-4-4.143-4-2.286 0-4.144 1.794-4.144 4 0 2.205 1.858 3.999 4.143 3.999zm4.093 2.303a7.919 7.919 0 01-2.406.962l2.316 2.236c.475.457.475 1.2 0 1.657a1.244 1.244 0 01-1.716 0L15.5 20.709l-2.276 2.198a1.235 1.235 0 01-.859.343c-.31 0-.62-.115-.858-.343a1.144 1.144 0 010-1.657l2.316-2.236a7.932 7.932 0 01-2.406-.962 1.148 1.148 0 01-.38-1.616 1.238 1.238 0 011.673-.369 5.422 5.422 0 005.58 0 1.239 1.239 0 011.673.369c.358.547.187 1.27-.38 1.616z" fill="#C5C9D6"/><path d="M15.49 10.094c.946 0 1.715.743 1.715 1.656 0 .913-.77 1.656-1.715 1.656-.946 0-1.716-.743-1.716-1.656 0-.913.77-1.656 1.716-1.656z" fill="#C5C9D6"/></svg><view id="svg-twitter" viewBox="33 0 33 33"/><svg width="33" height="33" fill="none" viewBox="-1 -1 33 33" x="33" xmlns="http://www.w3.org/2000/svg"><path fill-rule="evenodd" clip-rule="evenodd" d="M15.5 0C6.94 0 0 6.94 0 15.5 0 24.06 6.94 31 15.5 31 24.06 31 31 24.06 31 15.5 31 6.94 24.06 0 15.5 0zm-.432 13.135l-.032-.536c-.098-1.39.759-2.66 2.114-3.153.499-.175 1.344-.197 1.897-.044.217.066.63.285.922.482l.531.361.586-.186c.325-.098.759-.262.954-.372.184-.098.347-.153.347-.12 0 .186-.402.82-.738 1.17-.455.493-.325.537.597.209.553-.186.563-.186.455.022-.065.11-.401.492-.759.842-.607.602-.64.668-.64 1.172 0 .777-.368 2.397-.737 3.283-.683 1.664-2.146 3.383-3.61 4.247-2.06 1.215-4.803 1.522-7.113.81-.77-.24-2.092-.854-2.092-.963 0-.033.401-.077.889-.088a6.105 6.105 0 002.906-.81l.585-.35-.672-.23c-.954-.328-1.81-1.083-2.027-1.795-.066-.23-.044-.24.563-.24l.63-.012-.532-.251c-.629-.318-1.204-.854-1.485-1.401-.206-.394-.467-1.39-.39-1.467.02-.033.249.033.509.12.748.274.845.208.412-.251-.813-.832-1.063-2.069-.672-3.24l.184-.526.715.712c1.464 1.434 3.188 2.288 5.161 2.54l.542.065z" fill="#C5C9D6"/></svg><view id="svg-vk" viewBox="0 33 33 33"/><svg width="33" height="33" fill="none" viewBox="-1 -1 33 33" y="33" xmlns="http://www.w3.org/2000/svg"><path fill-rule="evenodd" clip-rule="evenodd" d="M15.5 0C6.94 0 0 6.94 0 15.5 0 24.06 6.94 31 15.5 31 24.06 31 31 24.06 31 15.5 31 6.94 24.06 0 15.5 0zm1.262 20.393c-.153.161-.451.194-.451.194h-.988s-2.18.128-4.101-1.834c-2.094-2.14-3.944-6.388-3.944-6.388s-.106-.279.01-.413c.13-.152.484-.161.484-.161l2.362-.015s.223.036.382.15a.727.727 0 01.206.273s.381.948.886 1.805c.988 1.674 1.447 2.04 1.782 1.86.488-.26.342-2.366.342-2.366s.009-.763-.246-1.104c-.197-.263-.57-.34-.733-.362-.134-.017.085-.32.368-.456.425-.204 1.175-.216 2.063-.207.691.007.89.049 1.16.113.627.149.607.625.565 1.652-.013.307-.027.663-.027 1.075 0 .092-.003.19-.006.292-.015.527-.031 1.129.322 1.353.181.115.623.017 1.73-1.828.525-.874.918-1.902.918-1.902s.087-.184.22-.262c.137-.08.321-.056.321-.056l2.486-.015s.747-.088.868.244c.127.347-.28 1.158-1.295 2.486-.963 1.261-1.432 1.726-1.39 2.136.032.3.337.571.922 1.104 1.22 1.113 1.548 1.698 1.627 1.838l.014.026c.548.892-.607.962-.607.962l-2.208.03s-.474.092-1.098-.329c-.328-.22-.647-.58-.951-.922-.465-.523-.895-1.006-1.261-.892-.616.192-.597 1.493-.597 1.493s.005.278-.135.426z" fill="#C5C9D6"/></svg><view id="svg-youtube" viewBox="33 33 33 33"/><svg width="33" height="33" fill="none" viewBox="-1 -1 33 33" x="33" y="33" xmlns="http://www.w3.org/2000/svg"><path fill-rule="evenodd" clip-rule="evenodd" d="M15.5 0C6.94 0 0 6.94 0 15.5 0 24.06 6.94 31 15.5 31 24.06 31 31 24.06 31 15.5 31 6.94 24.06 0 15.5 0zm6.46 10.171a2.1 2.1 0 011.461 1.501c.346 1.324.346 4.086.346 4.086s0 2.762-.346 4.086a2.1 2.1 0 01-1.462 1.501c-1.289.355-6.459.355-6.459.355s-5.17 0-6.46-.355a2.1 2.1 0 01-1.461-1.5c-.346-1.325-.346-4.087-.346-4.087s0-2.762.346-4.086c.19-.73.75-1.305 1.462-1.5 1.289-.355 6.459-.355 6.459-.355s5.17 0 6.46.354z" fill="#C5C9D6"/><path d="M13.95 18.6v-5.167l4.133 2.584L13.95 18.6z" fill="#C5C9D6"/></svg></svg>