<svg width="50" height="50" viewBox="0 0 50 50" fill="none" xmlns="http://www.w3.org/2000/svg">
<path d="M25 28.6458C24.1458 28.6458 23.4375 27.9375 23.4375 27.0833V16.6667C23.4375 15.8125 24.1458 15.1042 25 15.1042C25.8542 15.1042 26.5625 15.8125 26.5625 16.6667V27.0833C26.5625 27.9375 25.8542 28.6458 25 28.6458Z" fill="#273653"/>
<path d="M24.9999 47.3958C14.0833 47.3958 5.20825 38.5208 5.20825 27.6042C5.20825 16.6875 14.0833 7.8125 24.9999 7.8125C35.9166 7.8125 44.7916 16.6875 44.7916 27.6042C44.7916 28.4583 44.0833 29.1667 43.2291 29.1667C42.3749 29.1667 41.6666 28.4583 41.6666 27.6042C41.6666 18.4167 34.1874 10.9375 24.9999 10.9375C15.8124 10.9375 8.33325 18.4167 8.33325 27.6042C8.33325 36.7917 15.8124 44.2708 24.9999 44.2708C25.8541 44.2708 26.5624 44.9792 26.5624 45.8333C26.5624 46.6875 25.8541 47.3958 24.9999 47.3958Z" fill="#46B6FF"/>
<path d="M31.25 5.72917H18.75C17.8958 5.72917 17.1875 5.02084 17.1875 4.16667C17.1875 3.31251 17.8958 2.60417 18.75 2.60417H31.25C32.1042 2.60417 32.8125 3.31251 32.8125 4.16667C32.8125 5.02084 32.1042 5.72917 31.25 5.72917Z" fill="#46B6FF"/>
<path d="M33.6459 45.875C32.9167 45.875 32.2501 45.7083 31.6459 45.3542C30.2709 44.5625 29.4792 42.9583 29.4792 40.9583V36.1458C29.4792 34.1458 30.2709 32.5417 31.6459 31.75C33.0209 30.9583 34.7918 31.0833 36.5209 32.0625L40.6876 34.4792C42.4168 35.4792 43.4168 36.9583 43.4168 38.5417C43.4168 40.125 42.4168 41.6042 40.6876 42.6042L36.5209 45.0208C35.5626 45.5833 34.5834 45.875 33.6459 45.875ZM33.6667 34.3333C33.5001 34.3333 33.3334 34.375 33.2084 34.4375C32.8334 34.6458 32.6042 35.2917 32.6042 36.125V40.9375C32.6042 41.7708 32.8334 42.4167 33.2084 42.625C33.5834 42.8333 34.2501 42.7292 34.9584 42.3125L39.1251 39.8958C39.8543 39.4792 40.2917 38.9583 40.2917 38.5417C40.2917 38.125 39.8543 37.6042 39.1251 37.1875L34.9584 34.7708C34.4793 34.4792 34.0209 34.3333 33.6667 34.3333Z" fill="#273653"/>
</svg>
