<svg width="50" height="50" viewBox="0 0 50 50" fill="none" xmlns="http://www.w3.org/2000/svg">
<path d="M22.5209 35.3125C22.1251 35.3125 21.7292 35.1667 21.4167 34.8542L18.2917 31.7292C17.6876 31.125 17.6876 30.125 18.2917 29.5208C18.8959 28.9167 19.8959 28.9167 20.5001 29.5208L22.5209 31.5417L29.7501 24.3125C30.3542 23.7083 31.3543 23.7083 31.9584 24.3125C32.5626 24.9167 32.5626 25.9167 31.9584 26.5208L23.6251 34.8542C23.3334 35.1667 22.9167 35.3125 22.5209 35.3125Z" fill="#273653"/>
<path d="M29.1667 14.0625H20.8334C18.8334 14.0625 15.1042 14.0625 15.1042 8.33334C15.1042 2.60417 18.8334 2.60417 20.8334 2.60417H29.1667C31.1667 2.60417 34.8959 2.60417 34.8959 8.33334C34.8959 10.3333 34.8959 14.0625 29.1667 14.0625ZM20.8334 5.72917C18.7709 5.72917 18.2292 5.72917 18.2292 8.33334C18.2292 10.9375 18.7709 10.9375 20.8334 10.9375H29.1667C31.7709 10.9375 31.7709 10.3958 31.7709 8.33334C31.7709 5.72917 31.2292 5.72917 29.1667 5.72917H20.8334Z" fill="#33A2EB"/>
<path d="M31.25 47.3958H18.75C7.04167 47.3958 4.6875 42.0208 4.6875 33.3333V20.8333C4.6875 11.3333 8.125 7.27084 16.5833 6.83334C17.4375 6.79167 18.1875 7.43751 18.2292 8.31251C18.2708 9.18751 17.6042 9.89584 16.75 9.93751C10.8333 10.2708 7.8125 12.0417 7.8125 20.8333V33.3333C7.8125 41.0417 9.33333 44.2708 18.75 44.2708H31.25C40.6667 44.2708 42.1875 41.0417 42.1875 33.3333V20.8333C42.1875 12.0417 39.1667 10.2708 33.25 9.93751C32.3958 9.89584 31.7292 9.14584 31.7708 8.29167C31.8125 7.43751 32.5417 6.77084 33.4167 6.81251C41.875 7.27084 45.3125 11.3333 45.3125 20.8125V33.3125C45.3125 42.0208 42.9583 47.3958 31.25 47.3958Z" fill="#9ED8FE"/>
</svg>
