<svg width="50" height="50" viewBox="0 0 50 50" fill="none" xmlns="http://www.w3.org/2000/svg">
<path d="M31.2501 47.3958H18.7501C7.43758 47.3958 2.60425 42.5625 2.60425 31.25V18.75C2.60425 7.43751 7.43758 2.60417 18.7501 2.60417H29.1668C30.0209 2.60417 30.7293 3.31251 30.7293 4.16667C30.7293 5.02084 30.0209 5.72917 29.1668 5.72917H18.7501C9.14591 5.72917 5.72925 9.14584 5.72925 18.75V31.25C5.72925 40.8542 9.14591 44.2708 18.7501 44.2708H31.2501C40.8543 44.2708 44.2709 40.8542 44.2709 31.25V20.8333C44.2709 19.9792 44.9793 19.2708 45.8334 19.2708C46.6876 19.2708 47.3959 19.9792 47.3959 20.8333V31.25C47.3959 42.5625 42.5626 47.3958 31.2501 47.3958Z" fill="#9ED8FE"/>
<path d="M45.8334 22.3958H37.5001C30.3751 22.3958 27.6042 19.625 27.6042 12.5V4.16666C27.6042 3.54166 27.9792 2.95833 28.5626 2.72916C29.1459 2.47916 29.8126 2.625 30.2709 3.0625L46.9376 19.7292C47.3751 20.1667 47.5209 20.8542 47.2709 21.4375C47.0209 22.0208 46.4584 22.3958 45.8334 22.3958ZM30.7292 7.9375V12.5C30.7292 17.875 32.1251 19.2708 37.5001 19.2708H42.0626L30.7292 7.9375Z" fill="#46B6FF"/>
<path d="M27.0833 28.6458H14.5833C13.7291 28.6458 13.0208 27.9375 13.0208 27.0833C13.0208 26.2292 13.7291 25.5208 14.5833 25.5208H27.0833C27.9374 25.5208 28.6458 26.2292 28.6458 27.0833C28.6458 27.9375 27.9374 28.6458 27.0833 28.6458Z" fill="#273653"/>
<path d="M22.9166 36.9792H14.5833C13.7291 36.9792 13.0208 36.2708 13.0208 35.4167C13.0208 34.5625 13.7291 33.8542 14.5833 33.8542H22.9166C23.7708 33.8542 24.4791 34.5625 24.4791 35.4167C24.4791 36.2708 23.7708 36.9792 22.9166 36.9792Z" fill="#273653"/>
</svg>
