<svg width="50" height="50" viewBox="0 0 50 50" fill="none" xmlns="http://www.w3.org/2000/svg">
<path d="M24.9998 47.4167C22.729 47.4167 20.479 46.75 18.7082 45.4375L9.74979 38.75C7.37479 36.9792 5.52063 33.2708 5.52063 30.3333V14.8333C5.52063 11.625 7.87483 8.20833 10.8957 7.08333L21.2915 3.1875C23.354 2.41667 26.604 2.41667 28.6665 3.1875L39.0623 7.08333C42.0831 8.20833 44.4373 11.625 44.4373 14.8333V30.3125C44.4373 33.2708 42.5831 36.9583 40.2081 38.7292L31.2498 45.4167C29.5206 46.75 27.2706 47.4167 24.9998 47.4167ZM22.3956 6.125L11.9998 10.0208C10.229 10.6875 8.66648 12.9375 8.66648 14.8542V30.3333C8.66648 32.3125 10.0623 35.0833 11.6248 36.25L20.5832 42.9375C22.979 44.7292 27.0207 44.7292 29.4373 42.9375L38.3956 36.25C39.979 35.0625 41.354 32.3125 41.354 30.3333V14.8333C41.354 12.9375 39.7915 10.6875 38.0206 10L27.6248 6.10417C26.2082 5.60417 23.7915 5.60417 22.3956 6.125Z" fill="#9ED8FE"/>
<path d="M25 33.8542C19.5416 33.8542 15.1041 29.4167 15.1041 23.9583C15.1041 18.5 19.5416 14.0625 25 14.0625C30.4583 14.0625 34.8958 18.5 34.8958 23.9583C34.8958 29.4167 30.4583 33.8542 25 33.8542ZM25 17.1875C21.2708 17.1875 18.2291 20.2292 18.2291 23.9583C18.2291 27.6875 21.2708 30.7292 25 30.7292C28.7291 30.7292 31.7708 27.6875 31.7708 23.9583C31.7708 20.2292 28.7291 17.1875 25 17.1875Z" fill="#273653"/>
<path d="M22.9164 27.6042C22.3956 27.6042 21.8747 27.3334 21.5831 26.8542C21.1456 26.1042 21.3748 25.1458 22.1248 24.7083L23.7081 23.75C23.8748 23.6458 23.9581 23.4792 23.9581 23.3125V21.375C23.9581 20.5208 24.6664 19.8125 25.5206 19.8125C26.3748 19.8125 27.0831 20.5 27.0831 21.3542V23.2917C27.0831 24.5625 26.3956 25.7708 25.3123 26.4167L23.7081 27.375C23.479 27.5417 23.1873 27.6042 22.9164 27.6042Z" fill="#46B6FF"/>
</svg>
